<svg width="16" height="10" viewBox="0 0 16 10" fill="none" xmlns="http://www.w3.org/2000/svg">
<path fill-rule="evenodd" clip-rule="evenodd" d="M3 1C3 0.447715 3.44772 0 4 0H14.2827C14.835 0 15.2827 0.447715 15.2827 1C15.2827 1.55228 14.835 2 14.2827 2H4C3.44772 2 3 1.55228 3 1ZM0 5C0 4.44772 0.447715 4 1 4H11.2827C11.835 4 12.2827 4.44772 12.2827 5C12.2827 5.55228 11.835 6 11.2827 6H1C0.447715 6 0 5.55228 0 5ZM4 8C3.44772 8 3 8.44771 3 9C3 9.55229 3.44772 10 4 10H14.2827C14.835 10 15.2827 9.55229 15.2827 9C15.2827 8.44771 14.835 8 14.2827 8H4Z" fill="#0093FF"/>
</svg>
