<svg width="1440" height="1024" viewBox="0 0 1440 1024" fill="none" xmlns="http://www.w3.org/2000/svg">
<g clip-path="url(#clip0)">
<rect width="1440" height="1024" fill="white"/>
<path d="M421.8 247.25H397.2C393.804 247.25 391.05 249.993 391.05 253.375V277.875C391.05 281.257 393.804 284 397.2 284H421.8C425.196 284 427.95 281.257 427.95 277.875V253.375C427.95 249.993 425.196 247.25 421.8 247.25ZM384.9 192.125C384.9 188.743 382.146 186 378.75 186H354.15C350.754 186 348 188.743 348 192.125V216.625C348 220.007 350.754 222.75 354.15 222.75H372.546L386.607 247.258C388.74 243.609 392.664 241.125 397.2 241.125H397.254L384.9 219.594V210.5H427.95V198.25H384.9V192.125ZM464.85 186H440.25C436.854 186 434.1 188.743 434.1 192.125V216.625C434.1 220.007 436.854 222.75 440.25 222.75H464.85C468.246 222.75 471 220.007 471 216.625V192.125C471 188.743 468.246 186 464.85 186Z" fill="#F9F9F9"/>
<path d="M411.8 977.25H387.2C383.804 977.25 381.05 979.993 381.05 983.375V1007.88C381.05 1011.26 383.804 1014 387.2 1014H411.8C415.196 1014 417.95 1011.26 417.95 1007.88V983.375C417.95 979.993 415.196 977.25 411.8 977.25ZM374.9 922.125C374.9 918.743 372.146 916 368.75 916H344.15C340.754 916 338 918.743 338 922.125V946.625C338 950.007 340.754 952.75 344.15 952.75H362.546L376.607 977.258C378.74 973.609 382.664 971.125 387.2 971.125H387.254L374.9 949.594V940.5H417.95V928.25H374.9V922.125ZM454.85 916H430.25C426.854 916 424.1 918.743 424.1 922.125V946.625C424.1 950.007 426.854 952.75 430.25 952.75H454.85C458.246 952.75 461 950.007 461 946.625V922.125C461 918.743 458.246 916 454.85 916Z" fill="#F9F9F9"/>
<path d="M652.8 919.25H628.2C624.804 919.25 622.05 921.993 622.05 925.375V949.875C622.05 953.257 624.804 956 628.2 956H652.8C656.196 956 658.95 953.257 658.95 949.875V925.375C658.95 921.993 656.196 919.25 652.8 919.25ZM615.9 864.125C615.9 860.743 613.146 858 609.75 858H585.15C581.754 858 579 860.743 579 864.125V888.625C579 892.007 581.754 894.75 585.15 894.75H603.546L617.607 919.258C619.74 915.609 623.664 913.125 628.2 913.125H628.254L615.9 891.594V882.5H658.95V870.25H615.9V864.125ZM695.85 858H671.25C667.854 858 665.1 860.743 665.1 864.125V888.625C665.1 892.007 667.854 894.75 671.25 894.75H695.85C699.246 894.75 702 892.007 702 888.625V864.125C702 860.743 699.246 858 695.85 858Z" fill="#F9F9F9"/>
<path d="M739.6 201.625H723.4C721.164 201.625 719.35 203.444 719.35 205.688V221.938C719.35 224.181 721.164 226 723.4 226H739.6C741.836 226 743.65 224.181 743.65 221.938V205.688C743.65 203.444 741.836 201.625 739.6 201.625ZM715.3 165.062C715.3 162.819 713.486 161 711.25 161H695.05C692.814 161 691 162.819 691 165.062V181.312C691 183.556 692.814 185.375 695.05 185.375H707.165L716.424 201.63C717.829 199.21 720.413 197.562 723.4 197.562H723.435L715.3 183.282V177.25H743.65V169.125H715.3V165.062ZM767.95 161H751.75C749.514 161 747.7 162.819 747.7 165.062V181.312C747.7 183.556 749.514 185.375 751.75 185.375H767.95C770.186 185.375 772 183.556 772 181.312V165.062C772 162.819 770.186 161 767.95 161Z" fill="#F9F9F9"/>
<path d="M133.6 449.625H117.4C115.164 449.625 113.35 451.444 113.35 453.688V469.938C113.35 472.181 115.164 474 117.4 474H133.6C135.836 474 137.65 472.181 137.65 469.938V453.688C137.65 451.444 135.836 449.625 133.6 449.625ZM109.3 413.062C109.3 410.819 107.486 409 105.25 409H89.05C86.8136 409 85 410.819 85 413.062V429.312C85 431.556 86.8136 433.375 89.05 433.375H101.165L110.424 449.63C111.829 447.21 114.413 445.562 117.4 445.562H117.435L109.3 431.282V425.25H137.65V417.125H109.3V413.062ZM161.95 409H145.75C143.514 409 141.7 410.819 141.7 413.062V429.312C141.7 431.556 143.514 433.375 145.75 433.375H161.95C164.186 433.375 166 431.556 166 429.312V413.062C166 410.819 164.186 409 161.95 409Z" fill="#F9F9F9"/>
<path d="M1039.8 357.25H1015.2C1011.8 357.25 1009.05 359.993 1009.05 363.375V387.875C1009.05 391.257 1011.8 394 1015.2 394H1039.8C1043.2 394 1045.95 391.257 1045.95 387.875V363.375C1045.95 359.993 1043.2 357.25 1039.8 357.25ZM1002.9 302.125C1002.9 298.743 1000.15 296 996.75 296H972.15C968.754 296 966 298.743 966 302.125V326.625C966 330.007 968.754 332.75 972.15 332.75H990.546L1004.61 357.258C1006.74 353.609 1010.66 351.125 1015.2 351.125H1015.25L1002.9 329.594V320.5H1045.95V308.25H1002.9V302.125ZM1082.85 296H1058.25C1054.85 296 1052.1 298.743 1052.1 302.125V326.625C1052.1 330.007 1054.85 332.75 1058.25 332.75H1082.85C1086.25 332.75 1089 330.007 1089 326.625V302.125C1089 298.743 1086.25 296 1082.85 296Z" fill="#F9F9F9"/>
<path d="M1390.8 133.25H1366.2C1362.8 133.25 1360.05 135.993 1360.05 139.375V163.875C1360.05 167.257 1362.8 170 1366.2 170H1390.8C1394.2 170 1396.95 167.257 1396.95 163.875V139.375C1396.95 135.993 1394.2 133.25 1390.8 133.25ZM1353.9 78.125C1353.9 74.7429 1351.15 72 1347.75 72H1323.15C1319.75 72 1317 74.7429 1317 78.125V102.625C1317 106.007 1319.75 108.75 1323.15 108.75H1341.55L1355.61 133.258C1357.74 129.609 1361.66 127.125 1366.2 127.125H1366.25L1353.9 105.594V96.5H1396.95V84.25H1353.9V78.125ZM1433.85 72H1409.25C1405.85 72 1403.1 74.7429 1403.1 78.125V102.625C1403.1 106.007 1405.85 108.75 1409.25 108.75H1433.85C1437.25 108.75 1440 106.007 1440 102.625V78.125C1440 74.7429 1437.25 72 1433.85 72Z" fill="#F9F9F9"/>
<path d="M42.8 316.25H18.2C14.804 316.25 12.05 318.993 12.05 322.375V346.875C12.05 350.257 14.804 353 18.2 353H42.8C46.196 353 48.95 350.257 48.95 346.875V322.375C48.95 318.993 46.196 316.25 42.8 316.25ZM5.9 261.125C5.9 257.743 3.14595 255 -0.25 255H-24.85C-28.246 255 -31 257.743 -31 261.125V285.625C-31 289.007 -28.246 291.75 -24.85 291.75H-6.45381L7.60663 316.258C9.73991 312.609 13.6644 310.125 18.2 310.125H18.2538L5.9 288.594V279.5H48.95V267.25H5.9V261.125ZM85.85 255H61.25C57.854 255 55.1 257.743 55.1 261.125V285.625C55.1 289.007 57.854 291.75 61.25 291.75H85.85C89.246 291.75 92 289.007 92 285.625V261.125C92 257.743 89.246 255 85.85 255Z" fill="#F9F9F9"/>
<path d="M735.68 307.883L705.125 277.32C704.279 276.475 703.132 276 701.937 276C700.741 276 699.594 276.475 698.748 277.32L692.395 283.668L700.445 291.718C704.673 290.29 708.677 294.339 707.225 298.544L714.984 306.303C720.333 304.459 724.544 311.147 720.526 315.161C716.387 319.3 709.556 314.713 711.777 309.327L704.534 302.094V321.133C708.487 323.092 708.012 327.672 705.953 329.727C704.947 330.733 703.583 331.297 702.16 331.297C700.738 331.297 699.373 330.733 698.367 329.727C695.622 326.977 696.638 322.397 700.125 320.977V301.758C696.875 300.428 696.281 296.955 697.213 294.726L689.277 286.781L668.32 307.741C667.475 308.586 667 309.733 667 310.929C667 312.125 667.475 313.272 668.32 314.117L698.884 344.68C699.73 345.525 700.876 346 702.072 346C703.267 346 704.414 345.525 705.259 344.68L735.68 314.259C736.525 313.414 737 312.267 737 311.071C737 309.875 736.525 308.728 735.68 307.883V307.883Z" fill="#F9F9F9"/>
<path d="M1157.7 127.567L1104.45 74.3002C1102.97 72.8274 1100.97 72 1098.89 72C1096.81 72 1094.81 72.8274 1093.33 74.3002L1082.26 85.3649L1096.29 99.3951C1103.66 96.906 1110.64 103.962 1108.11 111.29L1121.63 124.814C1130.95 121.601 1138.29 133.256 1131.29 140.252C1124.08 147.466 1112.17 139.471 1116.04 130.084L1103.42 117.478V150.66C1110.31 154.075 1109.48 162.057 1105.89 165.638C1104.14 167.391 1101.76 168.376 1099.28 168.376C1096.8 168.376 1094.42 167.391 1092.67 165.638C1087.88 160.845 1089.65 152.864 1095.73 150.388V116.892C1090.07 114.575 1089.03 108.521 1090.66 104.637L1076.82 90.7896L1040.3 127.319C1038.83 128.793 1038 130.792 1038 132.876C1038 134.96 1038.83 136.959 1040.3 138.433L1093.57 191.7C1095.04 193.173 1097.04 194 1099.13 194C1101.21 194 1103.21 193.173 1104.68 191.7L1157.7 138.681C1159.17 137.207 1160 135.208 1160 133.124C1160 131.04 1159.17 129.041 1157.7 127.567V127.567Z" fill="#F9F9F9"/>
<path d="M125.68 169.883L95.125 139.32C94.2791 138.475 93.1324 138 91.9367 138C90.7411 138 89.5943 138.475 88.7484 139.32L82.3953 145.668L90.4453 153.718C94.6734 152.29 98.6765 156.339 97.225 160.544L104.984 168.303C110.333 166.459 114.544 173.147 110.526 177.161C106.387 181.3 99.5562 176.713 101.777 171.327L94.5344 164.094V183.133C98.4875 185.092 98.0125 189.672 95.9531 191.727C94.947 192.733 93.5827 193.297 92.1602 193.297C90.7376 193.297 89.3734 192.733 88.3672 191.727C85.6219 188.977 86.6375 184.397 90.125 182.977V163.758C86.875 162.428 86.2813 158.955 87.2125 156.726L79.2766 148.781L58.3204 169.741C57.475 170.586 57 171.733 57 172.929C57 174.125 57.475 175.272 58.3204 176.117L88.8844 206.68C89.73 207.525 90.8765 208 92.0719 208C93.2673 208 94.4138 207.525 95.2594 206.68L125.68 176.259C126.525 175.414 127 174.267 127 173.071C127 171.875 126.525 170.728 125.68 169.883V169.883Z" fill="#F9F9F9"/>
<path d="M552.68 125.883L522.125 95.3198C521.279 94.4747 520.132 94 518.937 94C517.741 94 516.594 94.4747 515.748 95.3198L509.395 101.668L517.445 109.718C521.673 108.29 525.677 112.339 524.225 116.544L531.984 124.303C537.333 122.459 541.544 129.147 537.526 133.161C533.387 137.3 526.556 132.713 528.777 127.327L521.534 120.094V139.133C525.487 141.092 525.012 145.672 522.953 147.727C521.947 148.733 520.583 149.297 519.16 149.297C517.738 149.297 516.373 148.733 515.367 147.727C512.622 144.977 513.638 140.397 517.125 138.977V119.758C513.875 118.428 513.281 114.955 514.213 112.726L506.277 104.781L485.32 125.741C484.475 126.586 484 127.733 484 128.929C484 130.125 484.475 131.272 485.32 132.117L515.884 162.68C516.73 163.525 517.876 164 519.072 164C520.267 164 521.414 163.525 522.259 162.68L552.68 132.259C553.525 131.414 554 130.267 554 129.071C554 127.875 553.525 126.728 552.68 125.883V125.883Z" fill="#F9F9F9"/>
<path d="M346.68 80.8828L316.125 50.3198C315.279 49.4747 314.132 49 312.937 49C311.741 49 310.594 49.4747 309.748 50.3198L303.395 56.6684L311.445 64.7185C315.673 63.2903 319.677 67.3388 318.225 71.5436L325.984 79.3031C331.333 77.4593 335.544 84.1469 331.526 88.1611C327.387 92.3002 320.556 87.7126 322.777 82.3266L315.534 75.0937V94.1331C319.487 96.0925 319.012 100.672 316.953 102.727C315.947 103.733 314.583 104.297 313.16 104.297C311.738 104.297 310.373 103.733 309.367 102.727C306.622 99.9769 307.638 95.3971 311.125 93.9768V74.7577C307.875 73.428 307.281 69.9545 308.213 67.7264L300.277 59.7809L279.32 80.7406C278.475 81.5863 278 82.7332 278 83.929C278 85.1248 278.475 86.2717 279.32 87.1173L309.884 117.68C310.73 118.525 311.876 119 313.072 119C314.267 119 315.414 118.525 316.259 117.68L346.68 87.2595C347.525 86.4138 348 85.267 348 84.0712C348 82.8753 347.525 81.7285 346.68 80.8828V80.8828Z" fill="#F9F9F9"/>
<path d="M964.68 31.8828L934.125 1.31981C933.279 0.47471 932.132 0 930.937 0C929.741 0 928.594 0.47471 927.748 1.31981L921.395 7.66836L929.445 15.7185C933.673 14.2903 937.677 18.3388 936.225 22.5436L943.984 30.3031C949.333 28.4593 953.544 35.1469 949.526 39.1611C945.387 43.3002 938.556 38.7126 940.777 33.3266L933.534 26.0937V45.1331C937.487 47.0925 937.012 51.6722 934.953 53.727C933.947 54.7325 932.583 55.2974 931.16 55.2974C929.738 55.2974 928.373 54.7325 927.367 53.727C924.622 50.9769 925.638 46.3971 929.125 44.9768V25.7577C925.875 24.428 925.281 20.9545 926.213 18.7264L918.277 10.7809L897.32 31.7406C896.475 32.5863 896 33.7332 896 34.929C896 36.1248 896.475 37.2717 897.32 38.1173L927.884 68.6803C928.73 69.5253 929.876 70 931.072 70C932.267 70 933.414 69.5253 934.259 68.6803L964.68 38.2595C965.525 37.4138 966 36.267 966 35.0712C966 33.8753 965.525 32.7285 964.68 31.8828V31.8828Z" fill="#F9F9F9"/>
<path d="M459.667 343H439.333C428.108 343 419 352.182 419 363.5C419 374.818 428.108 384 439.333 384H459.667C470.892 384 480 374.818 480 363.5C480 352.182 470.892 343 459.667 343ZM459.667 377.167C452.169 377.167 446.111 371.049 446.111 363.5C446.111 355.941 452.179 349.833 459.667 349.833C467.165 349.833 473.222 355.951 473.222 363.5C473.222 371.059 467.154 377.167 459.667 377.167Z" fill="#F9F9F9"/>
<path d="M888.667 194H868.333C857.108 194 848 203.182 848 214.5C848 225.818 857.108 235 868.333 235H888.667C899.892 235 909 225.818 909 214.5C909 203.182 899.892 194 888.667 194ZM888.667 228.167C881.169 228.167 875.111 222.049 875.111 214.5C875.111 206.941 881.179 200.833 888.667 200.833C896.165 200.833 902.222 206.951 902.222 214.5C902.222 222.059 896.154 228.167 888.667 228.167Z" fill="#F9F9F9"/>
<path d="M594.667 14H574.333C563.108 14 554 23.1823 554 34.5C554 45.8177 563.108 55 574.333 55H594.667C605.892 55 615 45.8177 615 34.5C615 23.1823 605.892 14 594.667 14ZM594.667 48.1667C587.169 48.1667 581.111 42.0487 581.111 34.5C581.111 26.9406 587.179 20.8333 594.667 20.8333C602.165 20.8333 608.222 26.9513 608.222 34.5C608.222 42.0594 602.154 48.1667 594.667 48.1667Z" fill="#F9F9F9"/>
<path d="M1274.67 321H1254.33C1243.11 321 1234 330.182 1234 341.5C1234 352.818 1243.11 362 1254.33 362H1274.67C1285.89 362 1295 352.818 1295 341.5C1295 330.182 1285.89 321 1274.67 321ZM1274.67 355.167C1267.17 355.167 1261.11 349.049 1261.11 341.5C1261.11 333.941 1267.18 327.833 1274.67 327.833C1282.16 327.833 1288.22 333.951 1288.22 341.5C1288.22 349.059 1282.15 355.167 1274.67 355.167Z" fill="#F9F9F9"/>
<path d="M206.667 245H186.333C175.108 245 166 254.182 166 265.5C166 276.818 175.108 286 186.333 286H206.667C217.892 286 227 276.818 227 265.5C227 254.182 217.892 245 206.667 245ZM206.667 279.167C199.169 279.167 193.111 273.049 193.111 265.5C193.111 257.941 199.179 251.833 206.667 251.833C214.165 251.833 220.222 257.951 220.222 265.5C220.222 273.059 214.154 279.167 206.667 279.167Z" fill="#F9F9F9"/>
<path d="M154.667 28H134.333C123.108 28 114 37.1823 114 48.5C114 59.8177 123.108 69 134.333 69H154.667C165.892 69 175 59.8177 175 48.5C175 37.1823 165.892 28 154.667 28ZM154.667 62.1667C147.169 62.1667 141.111 56.0487 141.111 48.5C141.111 40.9406 147.179 34.8333 154.667 34.8333C162.165 34.8333 168.222 40.9513 168.222 48.5C168.222 56.0594 162.154 62.1667 154.667 62.1667Z" fill="#F9F9F9"/>
<path d="M584.5 235C571.52 235 561 243.52 561 254.036C561 258.575 562.964 262.73 566.232 265.997C565.085 270.61 561.248 274.719 561.202 274.765C561 274.975 560.945 275.286 561.064 275.561C561.184 275.835 561.441 276 561.734 276C567.821 276 572.383 273.09 574.641 271.296C577.643 272.422 580.975 273.071 584.5 273.071C597.48 273.071 608 264.551 608 254.036C608 243.52 597.48 235 584.5 235Z" fill="#F9F9F9"/>
<path d="M314.5 325C301.52 325 291 333.52 291 344.036C291 348.575 292.964 352.73 296.232 355.997C295.085 360.61 291.248 364.719 291.202 364.765C291 364.975 290.945 365.286 291.064 365.561C291.184 365.835 291.441 366 291.734 366C297.821 366 302.383 363.09 304.641 361.296C307.643 362.422 310.975 363.071 314.5 363.071C327.48 363.071 338 354.551 338 344.036C338 333.52 327.48 325 314.5 325Z" fill="#F9F9F9"/>
<path d="M771.5 63C758.52 63 748 71.5203 748 82.0357C748 86.575 749.964 90.7299 753.232 93.9971C752.085 98.6096 748.248 102.719 748.202 102.765C748 102.975 747.945 103.286 748.064 103.561C748.184 103.835 748.441 104 748.734 104C754.821 104 759.383 101.09 761.641 99.296C764.643 100.422 767.975 101.071 771.5 101.071C784.48 101.071 795 92.5511 795 82.0357C795 71.5203 784.48 63 771.5 63Z" fill="#F9F9F9"/>
<path d="M1252.5 191C1229.03 191 1210 206.586 1210 225.821C1210 234.125 1213.55 241.725 1219.46 247.702C1217.39 256.14 1210.45 263.656 1210.37 263.74C1210 264.125 1209.9 264.694 1210.12 265.196C1210.33 265.699 1210.8 266 1211.33 266C1222.33 266 1230.59 260.676 1234.67 257.395C1240.1 259.454 1246.12 260.643 1252.5 260.643C1275.97 260.643 1295 245.057 1295 225.821C1295 206.586 1275.97 191 1252.5 191Z" fill="#F9F9F9"/>
<path d="M1159.5 353C1146.52 353 1136 361.52 1136 372.036C1136 376.575 1137.96 380.73 1141.23 383.997C1140.08 388.61 1136.25 392.719 1136.2 392.765C1136 392.975 1135.94 393.286 1136.06 393.561C1136.18 393.835 1136.44 394 1136.73 394C1142.82 394 1147.38 391.09 1149.64 389.296C1152.64 390.422 1155.97 391.071 1159.5 391.071C1172.48 391.071 1183 382.551 1183 372.036C1183 361.52 1172.48 353 1159.5 353Z" fill="#F9F9F9"/>
<path d="M823.5 345C810.52 345 800 353.52 800 364.036C800 368.575 801.964 372.73 805.232 375.997C804.085 380.61 800.248 384.719 800.202 384.765C800 384.975 799.945 385.286 800.064 385.561C800.184 385.835 800.441 386 800.734 386C806.821 386 811.383 383.09 813.641 381.296C816.643 382.422 819.975 383.071 823.5 383.071C836.48 383.071 847 374.551 847 364.036C847 353.52 836.48 345 823.5 345Z" fill="#F9F9F9"/>
<path d="M766.5 956C753.52 956 743 964.52 743 975.036C743 979.575 744.964 983.73 748.232 986.997C747.085 991.61 743.248 995.719 743.202 995.765C743 995.975 742.945 996.286 743.064 996.561C743.184 996.835 743.441 997 743.734 997C749.821 997 754.383 994.09 756.641 992.296C759.643 993.422 762.975 994.071 766.5 994.071C779.48 994.071 790 985.551 790 975.036C790 964.52 779.48 956 766.5 956Z" fill="#F9F9F9"/>
<path d="M421.8 721.25H397.2C393.804 721.25 391.05 723.993 391.05 727.375V751.875C391.05 755.257 393.804 758 397.2 758H421.8C425.196 758 427.95 755.257 427.95 751.875V727.375C427.95 723.993 425.196 721.25 421.8 721.25ZM384.9 666.125C384.9 662.743 382.146 660 378.75 660H354.15C350.754 660 348 662.743 348 666.125V690.625C348 694.007 350.754 696.75 354.15 696.75H372.546L386.607 721.258C388.74 717.609 392.664 715.125 397.2 715.125H397.254L384.9 693.594V684.5H427.95V672.25H384.9V666.125ZM464.85 660H440.25C436.854 660 434.1 662.743 434.1 666.125V690.625C434.1 694.007 436.854 696.75 440.25 696.75H464.85C468.246 696.75 471 694.007 471 690.625V666.125C471 662.743 468.246 660 464.85 660Z" fill="#F9F9F9"/>
<path d="M739.6 675.625H723.4C721.164 675.625 719.35 677.444 719.35 679.688V695.938C719.35 698.181 721.164 700 723.4 700H739.6C741.836 700 743.65 698.181 743.65 695.938V679.688C743.65 677.444 741.836 675.625 739.6 675.625ZM715.3 639.062C715.3 636.819 713.486 635 711.25 635H695.05C692.814 635 691 636.819 691 639.062V655.312C691 657.556 692.814 659.375 695.05 659.375H707.165L716.424 675.63C717.829 673.21 720.413 671.562 723.4 671.562H723.435L715.3 657.282V651.25H743.65V643.125H715.3V639.062ZM767.95 635H751.75C749.514 635 747.7 636.819 747.7 639.062V655.312C747.7 657.556 749.514 659.375 751.75 659.375H767.95C770.186 659.375 772 657.556 772 655.312V639.062C772 636.819 770.186 635 767.95 635Z" fill="#F9F9F9"/>
<path d="M133.6 923.625H117.4C115.164 923.625 113.35 925.444 113.35 927.688V943.938C113.35 946.181 115.164 948 117.4 948H133.6C135.836 948 137.65 946.181 137.65 943.938V927.688C137.65 925.444 135.836 923.625 133.6 923.625ZM109.3 887.062C109.3 884.819 107.486 883 105.25 883H89.05C86.8136 883 85 884.819 85 887.062V903.312C85 905.556 86.8136 907.375 89.05 907.375H101.165L110.424 923.63C111.829 921.21 114.413 919.562 117.4 919.562H117.435L109.3 905.282V899.25H137.65V891.125H109.3V887.062ZM161.95 883H145.75C143.514 883 141.7 884.819 141.7 887.062V903.312C141.7 905.556 143.514 907.375 145.75 907.375H161.95C164.186 907.375 166 905.556 166 903.312V887.062C166 884.819 164.186 883 161.95 883Z" fill="#F9F9F9"/>
<path d="M1039.8 831.25H1015.2C1011.8 831.25 1009.05 833.993 1009.05 837.375V861.875C1009.05 865.257 1011.8 868 1015.2 868H1039.8C1043.2 868 1045.95 865.257 1045.95 861.875V837.375C1045.95 833.993 1043.2 831.25 1039.8 831.25ZM1002.9 776.125C1002.9 772.743 1000.15 770 996.75 770H972.15C968.754 770 966 772.743 966 776.125V800.625C966 804.007 968.754 806.75 972.15 806.75H990.546L1004.61 831.258C1006.74 827.609 1010.66 825.125 1015.2 825.125H1015.25L1002.9 803.594V794.5H1045.95V782.25H1002.9V776.125ZM1082.85 770H1058.25C1054.85 770 1052.1 772.743 1052.1 776.125V800.625C1052.1 804.007 1054.85 806.75 1058.25 806.75H1082.85C1086.25 806.75 1089 804.007 1089 800.625V776.125C1089 772.743 1086.25 770 1082.85 770Z" fill="#F9F9F9"/>
<path d="M1390.8 607.25H1366.2C1362.8 607.25 1360.05 609.993 1360.05 613.375V637.875C1360.05 641.257 1362.8 644 1366.2 644H1390.8C1394.2 644 1396.95 641.257 1396.95 637.875V613.375C1396.95 609.993 1394.2 607.25 1390.8 607.25ZM1353.9 552.125C1353.9 548.743 1351.15 546 1347.75 546H1323.15C1319.75 546 1317 548.743 1317 552.125V576.625C1317 580.007 1319.75 582.75 1323.15 582.75H1341.55L1355.61 607.258C1357.74 603.609 1361.66 601.125 1366.2 601.125H1366.25L1353.9 579.594V570.5H1396.95V558.25H1353.9V552.125ZM1433.85 546H1409.25C1405.85 546 1403.1 548.743 1403.1 552.125V576.625C1403.1 580.007 1405.85 582.75 1409.25 582.75H1433.85C1437.25 582.75 1440 580.007 1440 576.625V552.125C1440 548.743 1437.25 546 1433.85 546Z" fill="#F9F9F9"/>
<path d="M42.8 790.25H18.2C14.804 790.25 12.05 792.993 12.05 796.375V820.875C12.05 824.257 14.804 827 18.2 827H42.8C46.196 827 48.95 824.257 48.95 820.875V796.375C48.95 792.993 46.196 790.25 42.8 790.25ZM5.9 735.125C5.9 731.743 3.14595 729 -0.25 729H-24.85C-28.246 729 -31 731.743 -31 735.125V759.625C-31 763.007 -28.246 765.75 -24.85 765.75H-6.45381L7.60663 790.258C9.73991 786.609 13.6644 784.125 18.2 784.125H18.2538L5.9 762.594V753.5H48.95V741.25H5.9V735.125ZM85.85 729H61.25C57.854 729 55.1 731.743 55.1 735.125V759.625C55.1 763.007 57.854 765.75 61.25 765.75H85.85C89.246 765.75 92 763.007 92 759.625V735.125C92 731.743 89.246 729 85.85 729Z" fill="#F9F9F9"/>
<path d="M735.68 781.883L705.125 751.32C704.279 750.475 703.132 750 701.937 750C700.741 750 699.594 750.475 698.748 751.32L692.395 757.668L700.445 765.718C704.673 764.29 708.677 768.339 707.225 772.544L714.984 780.303C720.333 778.459 724.544 785.147 720.526 789.161C716.387 793.3 709.556 788.713 711.777 783.327L704.534 776.094V795.133C708.487 797.092 708.012 801.672 705.953 803.727C704.947 804.733 703.583 805.297 702.16 805.297C700.738 805.297 699.373 804.733 698.367 803.727C695.622 800.977 696.638 796.397 700.125 794.977V775.758C696.875 774.428 696.281 770.955 697.213 768.726L689.277 760.781L668.32 781.741C667.475 782.586 667 783.733 667 784.929C667 786.125 667.475 787.272 668.32 788.117L698.884 818.68C699.73 819.525 700.876 820 702.072 820C703.267 820 704.414 819.525 705.259 818.68L735.68 788.259C736.525 787.414 737 786.267 737 785.071C737 783.875 736.525 782.728 735.68 781.883V781.883Z" fill="#F9F9F9"/>
<path d="M999.68 961.883L969.125 931.32C968.279 930.475 967.132 930 965.937 930C964.741 930 963.594 930.475 962.748 931.32L956.395 937.668L964.445 945.718C968.673 944.29 972.677 948.339 971.225 952.544L978.984 960.303C984.333 958.459 988.544 965.147 984.526 969.161C980.387 973.3 973.556 968.713 975.777 963.327L968.534 956.094V975.133C972.487 977.092 972.012 981.672 969.953 983.727C968.947 984.733 967.583 985.297 966.16 985.297C964.738 985.297 963.373 984.733 962.367 983.727C959.622 980.977 960.638 976.397 964.125 974.977V955.758C960.875 954.428 960.281 950.955 961.213 948.726L953.277 940.781L932.32 961.741C931.475 962.586 931 963.733 931 964.929C931 966.125 931.475 967.272 932.32 968.117L962.884 998.68C963.73 999.525 964.876 1000 966.072 1000C967.267 1000 968.414 999.525 969.259 998.68L999.68 968.259C1000.53 967.414 1001 966.267 1001 965.071C1001 963.875 1000.53 962.728 999.68 961.883V961.883Z" fill="#F9F9F9"/>
<path d="M1321.68 1010.88L1291.12 980.32C1290.28 979.475 1289.13 979 1287.94 979C1286.74 979 1285.59 979.475 1284.75 980.32L1278.4 986.668L1286.45 994.718C1290.67 993.29 1294.68 997.339 1293.22 1001.54L1300.98 1009.3C1306.33 1007.46 1310.54 1014.15 1306.53 1018.16C1302.39 1022.3 1295.56 1017.71 1297.78 1012.33L1290.53 1005.09V1024.13C1294.49 1026.09 1294.01 1030.67 1291.95 1032.73C1290.95 1033.73 1289.58 1034.3 1288.16 1034.3C1286.74 1034.3 1285.37 1033.73 1284.37 1032.73C1281.62 1029.98 1282.64 1025.4 1286.13 1023.98V1004.76C1282.88 1003.43 1282.28 999.955 1283.21 997.726L1275.28 989.781L1254.32 1010.74C1253.47 1011.59 1253 1012.73 1253 1013.93C1253 1015.12 1253.47 1016.27 1254.32 1017.12L1284.88 1047.68C1285.73 1048.53 1286.88 1049 1288.07 1049C1289.27 1049 1290.41 1048.53 1291.26 1047.68L1321.68 1017.26C1322.53 1016.41 1323 1015.27 1323 1014.07C1323 1012.88 1322.53 1011.73 1321.68 1010.88V1010.88Z" fill="#F9F9F9"/>
<path d="M1157.7 601.567L1104.45 548.3C1102.97 546.827 1100.97 546 1098.89 546C1096.81 546 1094.81 546.827 1093.33 548.3L1082.26 559.365L1096.29 573.395C1103.66 570.906 1110.64 577.962 1108.11 585.29L1121.63 598.814C1130.95 595.601 1138.29 607.256 1131.29 614.252C1124.08 621.466 1112.17 613.471 1116.04 604.084L1103.42 591.478V624.66C1110.31 628.075 1109.48 636.057 1105.89 639.638C1104.14 641.391 1101.76 642.376 1099.28 642.376C1096.8 642.376 1094.42 641.391 1092.67 639.638C1087.88 634.845 1089.65 626.864 1095.73 624.388V590.892C1090.07 588.575 1089.03 582.521 1090.66 578.637L1076.82 564.79L1040.3 601.319C1038.83 602.793 1038 604.792 1038 606.876C1038 608.96 1038.83 610.959 1040.3 612.433L1093.57 665.7C1095.04 667.173 1097.04 668 1099.13 668C1101.21 668 1103.21 667.173 1104.68 665.7L1157.7 612.681C1159.17 611.207 1160 609.208 1160 607.124C1160 605.04 1159.17 603.041 1157.7 601.567V601.567Z" fill="#F9F9F9"/>
<path d="M493.566 460.616L460.393 427.433C459.474 426.515 458.229 426 456.931 426C455.633 426 454.388 426.515 453.47 427.433L446.572 434.326L455.312 443.066C459.903 441.515 464.249 445.911 462.673 450.476L471.097 458.901C476.904 456.899 481.476 464.16 477.114 468.518C472.621 473.012 465.204 468.031 467.615 462.183L459.752 454.33V475.002C464.044 477.129 463.528 482.101 461.292 484.332C460.2 485.424 458.718 486.037 457.174 486.037C455.629 486.037 454.148 485.424 453.056 484.332C450.075 481.346 451.178 476.374 454.964 474.832V453.966C451.436 452.522 450.791 448.751 451.802 446.331L443.186 437.705L420.434 460.461C419.516 461.379 419 462.625 419 463.923C419 465.221 419.516 466.466 420.434 467.385L453.617 500.567C454.535 501.485 455.78 502 457.078 502C458.376 502 459.621 501.485 460.539 500.567L493.566 467.539C494.484 466.621 495 465.376 495 464.077C495 462.779 494.484 461.534 493.566 460.616V460.616Z" fill="#F9F9F9"/>
<path d="M125.68 643.883L95.125 613.32C94.2791 612.475 93.1324 612 91.9367 612C90.7411 612 89.5943 612.475 88.7484 613.32L82.3953 619.668L90.4453 627.718C94.6734 626.29 98.6765 630.339 97.225 634.544L104.984 642.303C110.333 640.459 114.544 647.147 110.526 651.161C106.387 655.3 99.5562 650.713 101.777 645.327L94.5344 638.094V657.133C98.4875 659.092 98.0125 663.672 95.9531 665.727C94.947 666.733 93.5827 667.297 92.1602 667.297C90.7376 667.297 89.3734 666.733 88.3672 665.727C85.6219 662.977 86.6375 658.397 90.125 656.977V637.758C86.875 636.428 86.2813 632.955 87.2125 630.726L79.2766 622.781L58.3204 643.741C57.475 644.586 57 645.733 57 646.929C57 648.125 57.475 649.272 58.3204 650.117L88.8844 680.68C89.73 681.525 90.8765 682 92.0719 682C93.2673 682 94.4138 681.525 95.2594 680.68L125.68 650.259C126.525 649.414 127 648.267 127 647.071C127 645.875 126.525 644.728 125.68 643.883V643.883Z" fill="#F9F9F9"/>
<path d="M552.68 599.883L522.125 569.32C521.279 568.475 520.132 568 518.937 568C517.741 568 516.594 568.475 515.748 569.32L509.395 575.668L517.445 583.718C521.673 582.29 525.677 586.339 524.225 590.544L531.984 598.303C537.333 596.459 541.544 603.147 537.526 607.161C533.387 611.3 526.556 606.713 528.777 601.327L521.534 594.094V613.133C525.487 615.092 525.012 619.672 522.953 621.727C521.947 622.733 520.583 623.297 519.16 623.297C517.738 623.297 516.373 622.733 515.367 621.727C512.622 618.977 513.638 614.397 517.125 612.977V593.758C513.875 592.428 513.281 588.955 514.213 586.726L506.277 578.781L485.32 599.741C484.475 600.586 484 601.733 484 602.929C484 604.125 484.475 605.272 485.32 606.117L515.884 636.68C516.73 637.525 517.876 638 519.072 638C520.267 638 521.414 637.525 522.259 636.68L552.68 606.259C553.525 605.414 554 604.267 554 603.071C554 601.875 553.525 600.728 552.68 599.883V599.883Z" fill="#F9F9F9"/>
<path d="M346.68 554.883L316.125 524.32C315.279 523.475 314.132 523 312.937 523C311.741 523 310.594 523.475 309.748 524.32L303.395 530.668L311.445 538.718C315.673 537.29 319.677 541.339 318.225 545.544L325.984 553.303C331.333 551.459 335.544 558.147 331.526 562.161C327.387 566.3 320.556 561.713 322.777 556.327L315.534 549.094V568.133C319.487 570.092 319.012 574.672 316.953 576.727C315.947 577.733 314.583 578.297 313.16 578.297C311.738 578.297 310.373 577.733 309.367 576.727C306.622 573.977 307.638 569.397 311.125 567.977V548.758C307.875 547.428 307.281 543.955 308.213 541.726L300.277 533.781L279.32 554.741C278.475 555.586 278 556.733 278 557.929C278 559.125 278.475 560.272 279.32 561.117L309.884 591.68C310.73 592.525 311.876 593 313.072 593C314.267 593 315.414 592.525 316.259 591.68L346.68 561.259C347.525 560.414 348 559.267 348 558.071C348 556.875 347.525 555.728 346.68 554.883V554.883Z" fill="#F9F9F9"/>
<path d="M964.68 505.883L934.125 475.32C933.279 474.475 932.132 474 930.937 474C929.741 474 928.594 474.475 927.748 475.32L921.395 481.668L929.445 489.718C933.673 488.29 937.677 492.339 936.225 496.544L943.984 504.303C949.333 502.459 953.544 509.147 949.526 513.161C945.387 517.3 938.556 512.713 940.777 507.327L933.534 500.094V519.133C937.487 521.092 937.012 525.672 934.953 527.727C933.947 528.733 932.583 529.297 931.16 529.297C929.738 529.297 928.373 528.733 927.367 527.727C924.622 524.977 925.638 520.397 929.125 518.977V499.758C925.875 498.428 925.281 494.955 926.213 492.726L918.277 484.781L897.32 505.741C896.475 506.586 896 507.733 896 508.929C896 510.125 896.475 511.272 897.32 512.117L927.884 542.68C928.73 543.525 929.876 544 931.072 544C932.267 544 933.414 543.525 934.259 542.68L964.68 512.259C965.525 511.414 966 510.267 966 509.071C966 507.875 965.525 506.728 964.68 505.883V505.883Z" fill="#F9F9F9"/>
<path d="M459.667 817H439.333C428.108 817 419 826.182 419 837.5C419 848.818 428.108 858 439.333 858H459.667C470.892 858 480 848.818 480 837.5C480 826.182 470.892 817 459.667 817ZM459.667 851.167C452.169 851.167 446.111 845.049 446.111 837.5C446.111 829.941 452.179 823.833 459.667 823.833C467.165 823.833 473.222 829.951 473.222 837.5C473.222 845.059 467.154 851.167 459.667 851.167Z" fill="#F9F9F9"/>
<path d="M707.667 409H687.333C676.108 409 667 418.182 667 429.5C667 440.818 676.108 450 687.333 450H707.667C718.892 450 728 440.818 728 429.5C728 418.182 718.892 409 707.667 409ZM707.667 443.167C700.169 443.167 694.111 437.049 694.111 429.5C694.111 421.941 700.179 415.833 707.667 415.833C715.165 415.833 721.222 421.951 721.222 429.5C721.222 437.059 715.154 443.167 707.667 443.167Z" fill="#F9F9F9"/>
<path d="M888.667 668H868.333C857.108 668 848 677.182 848 688.5C848 699.818 857.108 709 868.333 709H888.667C899.892 709 909 699.818 909 688.5C909 677.182 899.892 668 888.667 668ZM888.667 702.167C881.169 702.167 875.111 696.049 875.111 688.5C875.111 680.941 881.179 674.833 888.667 674.833C896.165 674.833 902.222 680.951 902.222 688.5C902.222 696.059 896.154 702.167 888.667 702.167Z" fill="#F9F9F9"/>
<path d="M594.667 488H574.333C563.108 488 554 497.182 554 508.5C554 519.818 563.108 529 574.333 529H594.667C605.892 529 615 519.818 615 508.5C615 497.182 605.892 488 594.667 488ZM594.667 522.167C587.169 522.167 581.111 516.049 581.111 508.5C581.111 500.941 587.179 494.833 594.667 494.833C602.165 494.833 608.222 500.951 608.222 508.5C608.222 516.059 602.154 522.167 594.667 522.167Z" fill="#F9F9F9"/>
<path d="M1274.67 795H1254.33C1243.11 795 1234 804.182 1234 815.5C1234 826.818 1243.11 836 1254.33 836H1274.67C1285.89 836 1295 826.818 1295 815.5C1295 804.182 1285.89 795 1274.67 795ZM1274.67 829.167C1267.17 829.167 1261.11 823.049 1261.11 815.5C1261.11 807.941 1267.18 801.833 1274.67 801.833C1282.16 801.833 1288.22 807.951 1288.22 815.5C1288.22 823.059 1282.15 829.167 1274.67 829.167Z" fill="#F9F9F9"/>
<path d="M206.667 719H186.333C175.108 719 166 728.182 166 739.5C166 750.818 175.108 760 186.333 760H206.667C217.892 760 227 750.818 227 739.5C227 728.182 217.892 719 206.667 719ZM206.667 753.167C199.169 753.167 193.111 747.049 193.111 739.5C193.111 731.941 199.179 725.833 206.667 725.833C214.165 725.833 220.222 731.951 220.222 739.5C220.222 747.059 214.154 753.167 206.667 753.167Z" fill="#F9F9F9"/>
<path d="M154.667 502H134.333C123.108 502 114 511.182 114 522.5C114 533.818 123.108 543 134.333 543H154.667C165.892 543 175 533.818 175 522.5C175 511.182 165.892 502 154.667 502ZM154.667 536.167C147.169 536.167 141.111 530.049 141.111 522.5C141.111 514.941 147.179 508.833 154.667 508.833C162.165 508.833 168.222 514.951 168.222 522.5C168.222 530.059 162.154 536.167 154.667 536.167Z" fill="#F9F9F9"/>
<path d="M584.5 709C571.52 709 561 717.52 561 728.036C561 732.575 562.964 736.73 566.232 739.997C565.085 744.61 561.248 748.719 561.202 748.765C561 748.975 560.945 749.286 561.064 749.561C561.184 749.835 561.441 750 561.734 750C567.821 750 572.383 747.09 574.641 745.296C577.643 746.422 580.975 747.071 584.5 747.071C597.48 747.071 608 738.551 608 728.036C608 717.52 597.48 709 584.5 709Z" fill="#F9F9F9"/>
<path d="M314.5 799C301.52 799 291 807.52 291 818.036C291 822.575 292.964 826.73 296.232 829.997C295.085 834.61 291.248 838.719 291.202 838.765C291 838.975 290.945 839.286 291.064 839.561C291.184 839.835 291.441 840 291.734 840C297.821 840 302.383 837.09 304.641 835.296C307.643 836.422 310.975 837.071 314.5 837.071C327.48 837.071 338 828.551 338 818.036C338 807.52 327.48 799 314.5 799Z" fill="#F9F9F9"/>
<path d="M771.5 537C758.52 537 748 545.52 748 556.036C748 560.575 749.964 564.73 753.232 567.997C752.085 572.61 748.248 576.719 748.202 576.765C748 576.975 747.945 577.286 748.064 577.561C748.184 577.835 748.441 578 748.734 578C754.821 578 759.383 575.09 761.641 573.296C764.643 574.422 767.975 575.071 771.5 575.071C784.48 575.071 795 566.551 795 556.036C795 545.52 784.48 537 771.5 537Z" fill="#F9F9F9"/>
<path d="M1252.5 665C1229.03 665 1210 680.586 1210 699.821C1210 708.125 1213.55 715.725 1219.46 721.702C1217.39 730.14 1210.45 737.656 1210.37 737.74C1210 738.125 1209.9 738.694 1210.12 739.196C1210.33 739.699 1210.8 740 1211.33 740C1222.33 740 1230.59 734.676 1234.67 731.395C1240.1 733.454 1246.12 734.643 1252.5 734.643C1275.97 734.643 1295 719.057 1295 699.821C1295 680.586 1275.97 665 1252.5 665Z" fill="#F9F9F9"/>
<path d="M1159.5 827C1146.52 827 1136 835.52 1136 846.036C1136 850.575 1137.96 854.73 1141.23 857.997C1140.08 862.61 1136.25 866.719 1136.2 866.765C1136 866.975 1135.94 867.286 1136.06 867.561C1136.18 867.835 1136.44 868 1136.73 868C1142.82 868 1147.38 865.09 1149.64 863.296C1152.64 864.422 1155.97 865.071 1159.5 865.071C1172.48 865.071 1183 856.551 1183 846.036C1183 835.52 1172.48 827 1159.5 827Z" fill="#F9F9F9"/>
<path d="M823.5 819C810.52 819 800 827.52 800 838.036C800 842.575 801.964 846.73 805.232 849.997C804.085 854.61 800.248 858.719 800.202 858.765C800 858.975 799.945 859.286 800.064 859.561C800.184 859.835 800.441 860 800.734 860C806.821 860 811.383 857.09 813.641 855.296C816.643 856.422 819.975 857.071 823.5 857.071C836.48 857.071 847 848.551 847 838.036C847 827.52 836.48 819 823.5 819Z" fill="#F9F9F9"/>
</g>
<defs>
<clipPath id="clip0">
<rect width="1440" height="1024" fill="white"/>
</clipPath>
</defs>
</svg>
